<svg xmlns="http://www.w3.org/2000/svg" width="1440" height="1306" fill="none"><path fill="#EFF8FF" d="M0 .207h1440v1305.21H0z"/><mask id="a" width="1440" height="1306" x="0" y="0" maskUnits="userSpaceOnUse" style="mask-type:luminance"><path fill="#fff" d="M0 .207h1440v1305.21H0z"/></mask><g mask="url(#a)"><g filter="url(#b)"><path fill="#AEDEFF" d="M1324.76 1124.88c-381.378 381.38-486.953 844.52-665.737 665.74-178.785-178.79-14.549-632.89 366.827-1014.273 381.39-381.38 835.49-545.617 1014.27-366.832 178.79 178.785-333.98 333.98-715.36 715.365z"/></g><g filter="url(#c)"><path fill="#5EBAFF" d="M511.052 713.927c-381.38 381.383-487.255 844.223-665.74 665.743-178.485-178.49-14.005-632.349 367.375-1013.729S1047.93-179.919 1226.41-1.434c178.49 178.485-333.977 333.98-715.358 715.361z"/></g><rect width="1479.74" height="1479.74" x="1475.9" y="270.104" fill="url(#d)" stroke="url(#e)" rx="739.868" transform="rotate(90 1475.9 270.104)"/><rect width="1251.06" height="1251.06" x="1361.56" y="498.781" fill="url(#f)" stroke="url(#g)" rx="625.529" transform="rotate(90 1361.56 498.781)"/><rect width="690.703" height="690.703" x="1081.38" y="778.959" fill="url(#h)" stroke="url(#i)" rx="345.352" transform="rotate(90 1081.38 778.959)"/></g><defs><linearGradient id="d" x1="395.294" x2="2306.79" y1="828.001" y2="893.501" gradientUnits="userSpaceOnUse"><stop stop-color="#fff"/><stop offset="1" stop-color="#fff" stop-opacity="0"/></linearGradient><linearGradient id="e" x1="1369.29" x2="2674.06" y1="971.501" y2="922.62" gradientUnits="userSpaceOnUse"><stop stop-color="#fff"/><stop offset="1" stop-color="#fff" stop-opacity="0"/></linearGradient><linearGradient id="f" x1="663.277" x2="2475.22" y1="1007.84" y2="1014.32" gradientUnits="userSpaceOnUse"><stop stop-color="#fff"/><stop offset=".797" stop-color="#fff" stop-opacity="0"/></linearGradient><linearGradient id="g" x1="1311.28" x2="2374.76" y1="1083.84" y2="1050.45" gradientUnits="userSpaceOnUse"><stop stop-color="#fff"/><stop offset="1" stop-color="#fff" stop-opacity="0"/></linearGradient><linearGradient id="h" x1="400.922" x2="1696.85" y1="1068.34" y2="1063.55" gradientUnits="userSpaceOnUse"><stop stop-color="#fff"/><stop offset="1" stop-color="#fff" stop-opacity="0"/></linearGradient><linearGradient id="i" x1="965.422" x2="1641.35" y1="1105.84" y2="1083.51" gradientUnits="userSpaceOnUse"><stop stop-color="#fff"/><stop offset="1" stop-color="#fff" stop-opacity="0"/></linearGradient><filter id="b" width="2890.08" height="2892.97" x="-113.27" y="-362.778" color-interpolation-filters="sRGB" filterUnits="userSpaceOnUse"><feFlood flood-opacity="0" result="BackgroundImageFix"/><feBlend in="SourceGraphic" in2="BackgroundImageFix" result="shape"/><feGaussianBlur result="effect1_foregroundBlur_102_352" stdDeviation="350"/></filter><filter id="c" width="2889.76" height="2892.64" x="-926.751" y="-773.497" color-interpolation-filters="sRGB" filterUnits="userSpaceOnUse"><feFlood flood-opacity="0" result="BackgroundImageFix"/><feBlend in="SourceGraphic" in2="BackgroundImageFix" result="shape"/><feGaussianBlur result="effect1_foregroundBlur_102_352" stdDeviation="350"/></filter></defs></svg>